<mxfile host="app.diagrams.net" modified="2024-02-18T21:12:47.414Z" agent="Mozilla/5.0 (Windows NT 10.0; Win64; x64) AppleWebKit/537.36 (KHTML, like Gecko) Chrome/121.0.0.0 Safari/537.36" etag="3K3pwGO92tfQ4IO3o-y1" version="23.1.5" type="device">
  <diagram name="Page-1" id="RYo1ZMAlDnl38uKvdfR7">
    <mxGraphModel dx="1850" dy="972" grid="1" gridSize="10" guides="1" tooltips="1" connect="1" arrows="1" fold="1" page="0" pageScale="1" pageWidth="850" pageHeight="1100" math="0" shadow="0">
      <root>
        <mxCell id="0" />
        <mxCell id="1" parent="0" />
        <mxCell id="A_ypituop9kUsFuHW1M4-5" value="Titles" style="swimlane;fontStyle=0;childLayout=stackLayout;horizontal=1;startSize=30;horizontalStack=0;resizeParent=1;resizeParentMax=0;resizeLast=0;collapsible=1;marginBottom=0;whiteSpace=wrap;html=1;" vertex="1" parent="1">
          <mxGeometry x="-109" y="242" width="140" height="187" as="geometry" />
        </mxCell>
        <mxCell id="A_ypituop9kUsFuHW1M4-8" value="&lt;b style=&quot;border-color: var(--border-color);&quot;&gt;&lt;u style=&quot;border-color: var(--border-color);&quot;&gt;tconst&lt;/u&gt;&lt;/b&gt;&lt;br&gt;titletype&lt;br&gt;primarytitle&lt;br&gt;originaltitle&lt;br&gt;isAdult&lt;br&gt;startYear&lt;br&gt;endYear&lt;br&gt;runtimeMinutes&lt;br&gt;genres&lt;br&gt;img_url_asset&lt;br&gt;&lt;br&gt;&lt;div&gt;&lt;br&gt;&lt;/div&gt;" style="text;strokeColor=none;fillColor=none;align=left;verticalAlign=middle;spacingLeft=4;spacingRight=4;overflow=hidden;points=[[0,0.5],[1,0.5]];portConstraint=eastwest;rotatable=0;whiteSpace=wrap;html=1;" vertex="1" parent="A_ypituop9kUsFuHW1M4-5">
          <mxGeometry y="30" width="140" height="157" as="geometry" />
        </mxCell>
        <mxCell id="A_ypituop9kUsFuHW1M4-21" value="People" style="swimlane;fontStyle=0;childLayout=stackLayout;horizontal=1;startSize=30;horizontalStack=0;resizeParent=1;resizeParentMax=0;resizeLast=0;collapsible=1;marginBottom=0;whiteSpace=wrap;html=1;" vertex="1" parent="1">
          <mxGeometry x="-510" y="586" width="140" height="142" as="geometry" />
        </mxCell>
        <mxCell id="A_ypituop9kUsFuHW1M4-23" value="&lt;u style=&quot;font-weight: bold;&quot;&gt;nconst&lt;/u&gt;&lt;br&gt;primaryName&lt;br&gt;birthYear&lt;br&gt;deathYear&lt;br&gt;primaryProfession&lt;br&gt;knownForTitles&lt;br&gt;img_url_asset" style="text;strokeColor=none;fillColor=none;align=left;verticalAlign=middle;spacingLeft=4;spacingRight=4;overflow=hidden;points=[[0,0.5],[1,0.5]];portConstraint=eastwest;rotatable=0;whiteSpace=wrap;html=1;" vertex="1" parent="A_ypituop9kUsFuHW1M4-21">
          <mxGeometry y="30" width="140" height="112" as="geometry" />
        </mxCell>
        <mxCell id="A_ypituop9kUsFuHW1M4-38" value="users" style="swimlane;fontStyle=0;childLayout=stackLayout;horizontal=1;startSize=30;horizontalStack=0;resizeParent=1;resizeParentMax=0;resizeLast=0;collapsible=1;marginBottom=0;whiteSpace=wrap;html=1;" vertex="1" parent="1">
          <mxGeometry x="-481" y="347" width="140" height="108" as="geometry" />
        </mxCell>
        <mxCell id="A_ypituop9kUsFuHW1M4-39" value="&lt;u style=&quot;font-weight: bold;&quot;&gt;userID&lt;/u&gt;&lt;br&gt;is_admin&lt;br&gt;username&lt;br&gt;approved&lt;br&gt;password_hashed" style="text;strokeColor=none;fillColor=none;align=left;verticalAlign=middle;spacingLeft=4;spacingRight=4;overflow=hidden;points=[[0,0.5],[1,0.5]];portConstraint=eastwest;rotatable=0;whiteSpace=wrap;html=1;" vertex="1" parent="A_ypituop9kUsFuHW1M4-38">
          <mxGeometry y="30" width="140" height="78" as="geometry" />
        </mxCell>
        <mxCell id="A_ypituop9kUsFuHW1M4-49" value="" style="rounded=0;whiteSpace=wrap;html=1;fillStyle=solid;" vertex="1" parent="1">
          <mxGeometry x="-447" y="93.5" width="150" height="72" as="geometry" />
        </mxCell>
        <mxCell id="A_ypituop9kUsFuHW1M4-54" value="user_rate" style="swimlane;fontStyle=0;childLayout=stackLayout;horizontal=1;startSize=30;horizontalStack=0;resizeParent=1;resizeParentMax=0;resizeLast=0;collapsible=1;marginBottom=0;whiteSpace=wrap;html=1;" vertex="1" parent="1">
          <mxGeometry x="-442" y="99.5" width="140" height="60" as="geometry" />
        </mxCell>
        <mxCell id="A_ypituop9kUsFuHW1M4-55" value="rating" style="text;strokeColor=none;fillColor=none;align=left;verticalAlign=middle;spacingLeft=4;spacingRight=4;overflow=hidden;points=[[0,0.5],[1,0.5]];portConstraint=eastwest;rotatable=0;whiteSpace=wrap;html=1;" vertex="1" parent="A_ypituop9kUsFuHW1M4-54">
          <mxGeometry y="30" width="140" height="30" as="geometry" />
        </mxCell>
        <mxCell id="A_ypituop9kUsFuHW1M4-56" value="" style="rounded=0;whiteSpace=wrap;html=1;" vertex="1" parent="1">
          <mxGeometry x="-82" y="-11" width="154" height="95" as="geometry" />
        </mxCell>
        <mxCell id="A_ypituop9kUsFuHW1M4-57" value="episodes" style="swimlane;fontStyle=0;childLayout=stackLayout;horizontal=1;startSize=30;horizontalStack=0;resizeParent=1;resizeParentMax=0;resizeLast=0;collapsible=1;marginBottom=0;whiteSpace=wrap;html=1;" vertex="1" parent="1">
          <mxGeometry x="-75" y="-4" width="140" height="81" as="geometry" />
        </mxCell>
        <mxCell id="A_ypituop9kUsFuHW1M4-58" value="seasonN&lt;br&gt;episodeN" style="text;strokeColor=none;fillColor=none;align=left;verticalAlign=middle;spacingLeft=4;spacingRight=4;overflow=hidden;points=[[0,0.5],[1,0.5]];portConstraint=eastwest;rotatable=0;whiteSpace=wrap;html=1;" vertex="1" parent="A_ypituop9kUsFuHW1M4-57">
          <mxGeometry y="30" width="140" height="51" as="geometry" />
        </mxCell>
        <mxCell id="A_ypituop9kUsFuHW1M4-59" value="" style="rounded=0;whiteSpace=wrap;html=1;" vertex="1" parent="1">
          <mxGeometry x="-116" y="602" width="154" height="159" as="geometry" />
        </mxCell>
        <mxCell id="A_ypituop9kUsFuHW1M4-60" value="Title_principals" style="swimlane;fontStyle=0;childLayout=stackLayout;horizontal=1;startSize=30;horizontalStack=0;resizeParent=1;resizeParentMax=0;resizeLast=0;collapsible=1;marginBottom=0;whiteSpace=wrap;html=1;" vertex="1" parent="1">
          <mxGeometry x="-109" y="611.5" width="140" height="141" as="geometry" />
        </mxCell>
        <mxCell id="A_ypituop9kUsFuHW1M4-61" value="category&lt;br&gt;job&lt;br&gt;characters&lt;br&gt;img_url_asset&lt;div&gt;&lt;br&gt;&lt;/div&gt;" style="text;strokeColor=none;fillColor=none;align=left;verticalAlign=middle;spacingLeft=4;spacingRight=4;overflow=hidden;points=[[0,0.5],[1,0.5]];portConstraint=eastwest;rotatable=0;whiteSpace=wrap;html=1;" vertex="1" parent="A_ypituop9kUsFuHW1M4-60">
          <mxGeometry y="30" width="140" height="111" as="geometry" />
        </mxCell>
        <mxCell id="A_ypituop9kUsFuHW1M4-62" value="" style="rounded=0;whiteSpace=wrap;html=1;" vertex="1" parent="1">
          <mxGeometry x="258" y="586" width="154" height="95" as="geometry" />
        </mxCell>
        <mxCell id="A_ypituop9kUsFuHW1M4-63" value="title_crew" style="swimlane;fontStyle=0;childLayout=stackLayout;horizontal=1;startSize=30;horizontalStack=0;resizeParent=1;resizeParentMax=0;resizeLast=0;collapsible=1;marginBottom=0;whiteSpace=wrap;html=1;" vertex="1" parent="1">
          <mxGeometry x="265" y="592.5" width="140" height="82" as="geometry" />
        </mxCell>
        <mxCell id="A_ypituop9kUsFuHW1M4-64" value="directors&lt;br&gt;writers" style="text;strokeColor=none;fillColor=none;align=left;verticalAlign=middle;spacingLeft=4;spacingRight=4;overflow=hidden;points=[[0,0.5],[1,0.5]];portConstraint=eastwest;rotatable=0;whiteSpace=wrap;html=1;" vertex="1" parent="A_ypituop9kUsFuHW1M4-63">
          <mxGeometry y="30" width="140" height="52" as="geometry" />
        </mxCell>
        <mxCell id="A_ypituop9kUsFuHW1M4-65" value="" style="rounded=0;whiteSpace=wrap;html=1;" vertex="1" parent="1">
          <mxGeometry x="258" y="270" width="153" height="173" as="geometry" />
        </mxCell>
        <mxCell id="A_ypituop9kUsFuHW1M4-66" value="title_akas" style="swimlane;fontStyle=0;childLayout=stackLayout;horizontal=1;startSize=30;horizontalStack=0;resizeParent=1;resizeParentMax=0;resizeLast=0;collapsible=1;marginBottom=0;whiteSpace=wrap;html=1;" vertex="1" parent="1">
          <mxGeometry x="264" y="280.5" width="140" height="152" as="geometry" />
        </mxCell>
        <mxCell id="A_ypituop9kUsFuHW1M4-67" value="title&lt;br&gt;region&lt;br&gt;language&lt;br&gt;types&lt;br&gt;atributes&lt;br&gt;isOriginalTitle" style="text;strokeColor=none;fillColor=none;align=left;verticalAlign=middle;spacingLeft=4;spacingRight=4;overflow=hidden;points=[[0,0.5],[1,0.5]];portConstraint=eastwest;rotatable=0;whiteSpace=wrap;html=1;" vertex="1" parent="A_ypituop9kUsFuHW1M4-66">
          <mxGeometry y="30" width="140" height="122" as="geometry" />
        </mxCell>
        <mxCell id="A_ypituop9kUsFuHW1M4-68" value="" style="rounded=0;whiteSpace=wrap;html=1;" vertex="1" parent="1">
          <mxGeometry x="258" y="84" width="157" height="89" as="geometry" />
        </mxCell>
        <mxCell id="A_ypituop9kUsFuHW1M4-69" value="title_ratings" style="swimlane;fontStyle=0;childLayout=stackLayout;horizontal=1;startSize=30;horizontalStack=0;resizeParent=1;resizeParentMax=0;resizeLast=0;collapsible=1;marginBottom=0;whiteSpace=wrap;html=1;" vertex="1" parent="1">
          <mxGeometry x="266.5" y="93.5" width="140" height="70" as="geometry" />
        </mxCell>
        <mxCell id="A_ypituop9kUsFuHW1M4-70" value="averageRate&lt;br&gt;numVotes" style="text;strokeColor=none;fillColor=none;align=left;verticalAlign=middle;spacingLeft=4;spacingRight=4;overflow=hidden;points=[[0,0.5],[1,0.5]];portConstraint=eastwest;rotatable=0;whiteSpace=wrap;html=1;" vertex="1" parent="A_ypituop9kUsFuHW1M4-69">
          <mxGeometry y="30" width="140" height="40" as="geometry" />
        </mxCell>
        <mxCell id="A_ypituop9kUsFuHW1M4-71" value="rates a title" style="shape=rhombus;double=1;perimeter=rhombusPerimeter;whiteSpace=wrap;html=1;align=center;" vertex="1" parent="1">
          <mxGeometry x="-461" y="228" width="120" height="70" as="geometry" />
        </mxCell>
        <mxCell id="A_ypituop9kUsFuHW1M4-74" value="" style="shape=link;html=1;rounded=0;fontSize=12;startSize=8;endSize=8;entryX=0.464;entryY=1.139;entryDx=0;entryDy=0;entryPerimeter=0;exitX=0.5;exitY=0;exitDx=0;exitDy=0;" edge="1" parent="1" source="A_ypituop9kUsFuHW1M4-71" target="A_ypituop9kUsFuHW1M4-55">
          <mxGeometry width="100" relative="1" as="geometry">
            <mxPoint x="-247" y="277" as="sourcePoint" />
            <mxPoint x="-297" y="182" as="targetPoint" />
          </mxGeometry>
        </mxCell>
        <mxCell id="A_ypituop9kUsFuHW1M4-75" value="1" style="text;html=1;align=center;verticalAlign=middle;whiteSpace=wrap;rounded=0;fontSize=16;" vertex="1" parent="1">
          <mxGeometry x="-408" y="291" width="60" height="30" as="geometry" />
        </mxCell>
        <mxCell id="A_ypituop9kUsFuHW1M4-76" value="N" style="text;html=1;align=center;verticalAlign=middle;whiteSpace=wrap;rounded=0;fontSize=16;" vertex="1" parent="1">
          <mxGeometry x="-408" y="205" width="60" height="30" as="geometry" />
        </mxCell>
        <mxCell id="A_ypituop9kUsFuHW1M4-79" value="" style="endArrow=none;html=1;rounded=0;fontSize=12;startSize=8;endSize=8;exitX=0.5;exitY=0;exitDx=0;exitDy=0;" edge="1" parent="1" source="A_ypituop9kUsFuHW1M4-38" target="A_ypituop9kUsFuHW1M4-71">
          <mxGeometry width="50" height="50" relative="1" as="geometry">
            <mxPoint x="21" y="394" as="sourcePoint" />
            <mxPoint x="71" y="344" as="targetPoint" />
          </mxGeometry>
        </mxCell>
        <mxCell id="A_ypituop9kUsFuHW1M4-80" value="is rated by" style="shape=rhombus;double=1;perimeter=rhombusPerimeter;whiteSpace=wrap;html=1;align=center;" vertex="1" parent="1">
          <mxGeometry x="-258" y="159.5" width="120" height="70" as="geometry" />
        </mxCell>
        <mxCell id="A_ypituop9kUsFuHW1M4-81" value="" style="shape=link;html=1;rounded=0;fontSize=12;startSize=8;endSize=8;exitX=1.043;exitY=0.037;exitDx=0;exitDy=0;exitPerimeter=0;entryX=0;entryY=0.5;entryDx=0;entryDy=0;" edge="1" parent="1" source="A_ypituop9kUsFuHW1M4-55" target="A_ypituop9kUsFuHW1M4-80">
          <mxGeometry width="100" relative="1" as="geometry">
            <mxPoint x="-254" y="93.5" as="sourcePoint" />
            <mxPoint x="-154" y="93.5" as="targetPoint" />
          </mxGeometry>
        </mxCell>
        <mxCell id="A_ypituop9kUsFuHW1M4-82" value="N" style="text;html=1;align=center;verticalAlign=middle;whiteSpace=wrap;rounded=0;fontSize=16;" vertex="1" parent="1">
          <mxGeometry x="-282" y="155.5" width="60" height="30" as="geometry" />
        </mxCell>
        <mxCell id="A_ypituop9kUsFuHW1M4-83" value="" style="endArrow=none;html=1;rounded=0;fontSize=12;startSize=8;endSize=8;entryX=1;entryY=0.5;entryDx=0;entryDy=0;exitX=0;exitY=0;exitDx=0;exitDy=0;" edge="1" parent="1" source="A_ypituop9kUsFuHW1M4-5" target="A_ypituop9kUsFuHW1M4-80">
          <mxGeometry width="50" height="50" relative="1" as="geometry">
            <mxPoint x="21" y="261" as="sourcePoint" />
            <mxPoint x="71" y="211" as="targetPoint" />
          </mxGeometry>
        </mxCell>
        <mxCell id="A_ypituop9kUsFuHW1M4-85" value="1" style="text;html=1;align=center;verticalAlign=middle;whiteSpace=wrap;rounded=0;fontSize=16;" vertex="1" parent="1">
          <mxGeometry x="-178" y="198" width="60" height="30" as="geometry" />
        </mxCell>
        <mxCell id="A_ypituop9kUsFuHW1M4-86" value="can have" style="shape=rhombus;double=1;perimeter=rhombusPerimeter;whiteSpace=wrap;html=1;align=center;" vertex="1" parent="1">
          <mxGeometry x="-72" y="125" width="120" height="70" as="geometry" />
        </mxCell>
        <mxCell id="A_ypituop9kUsFuHW1M4-87" value="" style="shape=link;html=1;rounded=0;fontSize=12;startSize=8;endSize=8;entryX=0.5;entryY=1;entryDx=0;entryDy=0;exitX=0.5;exitY=0;exitDx=0;exitDy=0;" edge="1" parent="1" source="A_ypituop9kUsFuHW1M4-86" target="A_ypituop9kUsFuHW1M4-56">
          <mxGeometry width="100" relative="1" as="geometry">
            <mxPoint x="-147" y="114" as="sourcePoint" />
            <mxPoint x="-123" y="50" as="targetPoint" />
          </mxGeometry>
        </mxCell>
        <mxCell id="A_ypituop9kUsFuHW1M4-88" value="1" style="text;html=1;align=center;verticalAlign=middle;whiteSpace=wrap;rounded=0;fontSize=16;" vertex="1" parent="1">
          <mxGeometry x="-29" y="108" width="60" height="30" as="geometry" />
        </mxCell>
        <mxCell id="A_ypituop9kUsFuHW1M4-89" value="" style="endArrow=none;html=1;rounded=0;fontSize=12;startSize=8;endSize=8;exitX=0.5;exitY=0;exitDx=0;exitDy=0;entryX=0.5;entryY=1;entryDx=0;entryDy=0;" edge="1" parent="1" source="A_ypituop9kUsFuHW1M4-5" target="A_ypituop9kUsFuHW1M4-86">
          <mxGeometry width="50" height="50" relative="1" as="geometry">
            <mxPoint x="-53" y="235" as="sourcePoint" />
            <mxPoint x="-47" y="184" as="targetPoint" />
          </mxGeometry>
        </mxCell>
        <mxCell id="A_ypituop9kUsFuHW1M4-90" value="0...*" style="text;html=1;align=center;verticalAlign=middle;whiteSpace=wrap;rounded=0;fontSize=16;" vertex="1" parent="1">
          <mxGeometry x="-63" y="185.5" width="60" height="30" as="geometry" />
        </mxCell>
        <mxCell id="A_ypituop9kUsFuHW1M4-91" value="title has" style="shape=rhombus;double=1;perimeter=rhombusPerimeter;whiteSpace=wrap;html=1;align=center;" vertex="1" parent="1">
          <mxGeometry x="87" y="324" width="120" height="70" as="geometry" />
        </mxCell>
        <mxCell id="A_ypituop9kUsFuHW1M4-92" value="has rating" style="shape=rhombus;double=1;perimeter=rhombusPerimeter;whiteSpace=wrap;html=1;align=center;" vertex="1" parent="1">
          <mxGeometry x="82" y="162" width="120" height="70" as="geometry" />
        </mxCell>
        <mxCell id="A_ypituop9kUsFuHW1M4-93" value="title has people" style="shape=rhombus;double=1;perimeter=rhombusPerimeter;whiteSpace=wrap;html=1;align=center;" vertex="1" parent="1">
          <mxGeometry x="-109" y="484" width="120" height="70" as="geometry" />
        </mxCell>
        <mxCell id="A_ypituop9kUsFuHW1M4-94" value="works is in title" style="shape=rhombus;double=1;perimeter=rhombusPerimeter;whiteSpace=wrap;html=1;align=center;" vertex="1" parent="1">
          <mxGeometry x="-292" y="635" width="120" height="70" as="geometry" />
        </mxCell>
        <mxCell id="A_ypituop9kUsFuHW1M4-95" value="has crew" style="shape=rhombus;double=1;perimeter=rhombusPerimeter;whiteSpace=wrap;html=1;align=center;" vertex="1" parent="1">
          <mxGeometry x="92" y="496" width="120" height="70" as="geometry" />
        </mxCell>
        <mxCell id="A_ypituop9kUsFuHW1M4-96" value="" style="endArrow=none;html=1;rounded=0;fontSize=12;startSize=8;endSize=8;entryX=0;entryY=0.5;entryDx=0;entryDy=0;exitX=1.016;exitY=0.082;exitDx=0;exitDy=0;exitPerimeter=0;" edge="1" parent="1" source="A_ypituop9kUsFuHW1M4-5" target="A_ypituop9kUsFuHW1M4-92">
          <mxGeometry width="50" height="50" relative="1" as="geometry">
            <mxPoint x="48" y="285" as="sourcePoint" />
            <mxPoint x="98" y="235" as="targetPoint" />
          </mxGeometry>
        </mxCell>
        <mxCell id="A_ypituop9kUsFuHW1M4-98" value="1" style="text;html=1;align=center;verticalAlign=middle;whiteSpace=wrap;rounded=0;fontSize=16;" vertex="1" parent="1">
          <mxGeometry x="52" y="202" width="60" height="30" as="geometry" />
        </mxCell>
        <mxCell id="A_ypituop9kUsFuHW1M4-99" value="" style="shape=link;html=1;rounded=0;fontSize=12;startSize=8;endSize=8;entryX=0;entryY=0.75;entryDx=0;entryDy=0;exitX=1;exitY=0.5;exitDx=0;exitDy=0;" edge="1" parent="1" source="A_ypituop9kUsFuHW1M4-92" target="A_ypituop9kUsFuHW1M4-68">
          <mxGeometry width="100" relative="1" as="geometry">
            <mxPoint x="205" y="147" as="sourcePoint" />
            <mxPoint x="212" y="106" as="targetPoint" />
          </mxGeometry>
        </mxCell>
        <mxCell id="A_ypituop9kUsFuHW1M4-100" value="1" style="text;html=1;align=center;verticalAlign=middle;whiteSpace=wrap;rounded=0;fontSize=16;" vertex="1" parent="1">
          <mxGeometry x="168" y="162" width="60" height="30" as="geometry" />
        </mxCell>
        <mxCell id="A_ypituop9kUsFuHW1M4-101" value="" style="endArrow=none;html=1;rounded=0;fontSize=12;startSize=8;endSize=8;entryX=0;entryY=0.5;entryDx=0;entryDy=0;exitX=1.021;exitY=1.023;exitDx=0;exitDy=0;exitPerimeter=0;" edge="1" parent="1" source="A_ypituop9kUsFuHW1M4-8" target="A_ypituop9kUsFuHW1M4-95">
          <mxGeometry width="50" height="50" relative="1" as="geometry">
            <mxPoint x="48" y="457" as="sourcePoint" />
            <mxPoint x="97" y="397" as="targetPoint" />
          </mxGeometry>
        </mxCell>
        <mxCell id="A_ypituop9kUsFuHW1M4-102" value="1" style="text;html=1;align=center;verticalAlign=middle;whiteSpace=wrap;rounded=0;fontSize=16;" vertex="1" parent="1">
          <mxGeometry x="65" y="496" width="60" height="30" as="geometry" />
        </mxCell>
        <mxCell id="A_ypituop9kUsFuHW1M4-103" value="1" style="text;html=1;align=center;verticalAlign=middle;whiteSpace=wrap;rounded=0;fontSize=16;" vertex="1" parent="1">
          <mxGeometry x="185" y="504" width="60" height="30" as="geometry" />
        </mxCell>
        <mxCell id="A_ypituop9kUsFuHW1M4-104" value="" style="shape=link;html=1;rounded=0;fontSize=12;startSize=8;endSize=8;entryX=0;entryY=0.5;entryDx=0;entryDy=0;exitX=0.5;exitY=1;exitDx=0;exitDy=0;" edge="1" parent="1" source="A_ypituop9kUsFuHW1M4-103" target="A_ypituop9kUsFuHW1M4-62">
          <mxGeometry width="100" relative="1" as="geometry">
            <mxPoint x="231" y="566" as="sourcePoint" />
            <mxPoint x="287" y="520" as="targetPoint" />
          </mxGeometry>
        </mxCell>
        <mxCell id="A_ypituop9kUsFuHW1M4-105" value="" style="endArrow=none;html=1;rounded=0;fontSize=12;startSize=8;endSize=8;entryX=0;entryY=0.5;entryDx=0;entryDy=0;exitX=1;exitY=0.5;exitDx=0;exitDy=0;" edge="1" parent="1" source="A_ypituop9kUsFuHW1M4-8" target="A_ypituop9kUsFuHW1M4-91">
          <mxGeometry width="50" height="50" relative="1" as="geometry">
            <mxPoint x="52" y="345" as="sourcePoint" />
            <mxPoint x="110" y="443" as="targetPoint" />
          </mxGeometry>
        </mxCell>
        <mxCell id="A_ypituop9kUsFuHW1M4-106" value="1" style="text;html=1;align=center;verticalAlign=middle;whiteSpace=wrap;rounded=0;fontSize=16;" vertex="1" parent="1">
          <mxGeometry x="57" y="321" width="60" height="30" as="geometry" />
        </mxCell>
        <mxCell id="A_ypituop9kUsFuHW1M4-107" value="" style="shape=link;html=1;rounded=0;fontSize=12;startSize=8;endSize=8;entryX=0;entryY=0.5;entryDx=0;entryDy=0;exitX=1;exitY=0.5;exitDx=0;exitDy=0;" edge="1" parent="1" source="A_ypituop9kUsFuHW1M4-91" target="A_ypituop9kUsFuHW1M4-65">
          <mxGeometry width="100" relative="1" as="geometry">
            <mxPoint x="215" y="390" as="sourcePoint" />
            <mxPoint x="258" y="490" as="targetPoint" />
          </mxGeometry>
        </mxCell>
        <mxCell id="A_ypituop9kUsFuHW1M4-108" value="N" style="text;html=1;align=center;verticalAlign=middle;whiteSpace=wrap;rounded=0;fontSize=16;" vertex="1" parent="1">
          <mxGeometry x="178" y="330" width="60" height="30" as="geometry" />
        </mxCell>
        <mxCell id="A_ypituop9kUsFuHW1M4-109" value="" style="endArrow=none;html=1;rounded=0;fontSize=12;startSize=8;endSize=8;entryX=0.5;entryY=0;entryDx=0;entryDy=0;exitX=0.53;exitY=0.992;exitDx=0;exitDy=0;exitPerimeter=0;" edge="1" parent="1" source="A_ypituop9kUsFuHW1M4-8" target="A_ypituop9kUsFuHW1M4-93">
          <mxGeometry width="50" height="50" relative="1" as="geometry">
            <mxPoint x="-217" y="423" as="sourcePoint" />
            <mxPoint x="-159" y="521" as="targetPoint" />
          </mxGeometry>
        </mxCell>
        <mxCell id="A_ypituop9kUsFuHW1M4-111" value="1" style="text;html=1;align=center;verticalAlign=middle;whiteSpace=wrap;rounded=0;fontSize=16;" vertex="1" parent="1">
          <mxGeometry x="-89" y="460" width="60" height="30" as="geometry" />
        </mxCell>
        <mxCell id="A_ypituop9kUsFuHW1M4-113" value="" style="shape=link;html=1;rounded=0;fontSize=12;startSize=8;endSize=8;entryX=0.5;entryY=0;entryDx=0;entryDy=0;exitX=0.5;exitY=1;exitDx=0;exitDy=0;" edge="1" parent="1" source="A_ypituop9kUsFuHW1M4-93" target="A_ypituop9kUsFuHW1M4-59">
          <mxGeometry width="100" relative="1" as="geometry">
            <mxPoint x="55" y="557" as="sourcePoint" />
            <mxPoint x="98" y="657" as="targetPoint" />
          </mxGeometry>
        </mxCell>
        <mxCell id="A_ypituop9kUsFuHW1M4-114" value="N" style="text;html=1;align=center;verticalAlign=middle;whiteSpace=wrap;rounded=0;fontSize=16;" vertex="1" parent="1">
          <mxGeometry x="-63" y="543" width="60" height="30" as="geometry" />
        </mxCell>
        <mxCell id="A_ypituop9kUsFuHW1M4-116" value="" style="endArrow=none;html=1;rounded=0;fontSize=12;startSize=8;endSize=8;exitX=1;exitY=0.5;exitDx=0;exitDy=0;entryX=0;entryY=0.5;entryDx=0;entryDy=0;" edge="1" parent="1" source="A_ypituop9kUsFuHW1M4-23" target="A_ypituop9kUsFuHW1M4-94">
          <mxGeometry width="50" height="50" relative="1" as="geometry">
            <mxPoint x="-324" y="593" as="sourcePoint" />
            <mxPoint x="-274" y="543" as="targetPoint" />
          </mxGeometry>
        </mxCell>
        <mxCell id="A_ypituop9kUsFuHW1M4-117" value="" style="shape=link;html=1;rounded=0;fontSize=12;startSize=8;endSize=8;entryX=0;entryY=0.5;entryDx=0;entryDy=0;exitX=1;exitY=0.5;exitDx=0;exitDy=0;" edge="1" parent="1" source="A_ypituop9kUsFuHW1M4-94" target="A_ypituop9kUsFuHW1M4-59">
          <mxGeometry width="100" relative="1" as="geometry">
            <mxPoint x="-185" y="550" as="sourcePoint" />
            <mxPoint x="-175" y="598" as="targetPoint" />
          </mxGeometry>
        </mxCell>
        <mxCell id="A_ypituop9kUsFuHW1M4-118" value="1" style="text;html=1;align=center;verticalAlign=middle;whiteSpace=wrap;rounded=0;fontSize=16;" vertex="1" parent="1">
          <mxGeometry x="-321" y="642" width="60" height="30" as="geometry" />
        </mxCell>
        <mxCell id="A_ypituop9kUsFuHW1M4-119" value="N" style="text;html=1;align=center;verticalAlign=middle;whiteSpace=wrap;rounded=0;fontSize=16;" vertex="1" parent="1">
          <mxGeometry x="-194" y="642" width="60" height="30" as="geometry" />
        </mxCell>
      </root>
    </mxGraphModel>
  </diagram>
</mxfile>
